    <svg
      width="30"
      height="30"
      viewBox="0 0 30 30"
      fill="none"
      xmlns="http://www.w3.org/2000/svg"
    >
      <rect width="30" height="30" rx="5" fill="#FD7908" />
      <path
        d="M24.2 25C24.48 25 24.62 25 24.727 24.9455C24.8211 24.8976 24.8976 24.8211 24.9455 24.727C25 24.62 25 24.48 25 24.2V13.8C25 13.52 25 13.38 24.9455 13.273C24.8976 13.1789 24.8211 13.1024 24.727 13.0545C24.62 13 24.48 13 24.2 13L21.8 13C21.52 13 21.38 13 21.273 13.0545C21.1789 13.1024 21.1024 13.1789 21.0545 13.273C21 13.38 21 13.52 21 13.8V16.2C21 16.48 21 16.62 20.9455 16.727C20.8976 16.8211 20.8211 16.8976 20.727 16.9455C20.62 17 20.48 17 20.2 17H17.8C17.52 17 17.38 17 17.273 17.0545C17.1789 17.1024 17.1024 17.1789 17.0545 17.273C17 17.38 17 17.52 17 17.8V20.2C17 20.48 17 20.62 16.9455 20.727C16.8976 20.8211 16.8211 20.8976 16.727 20.9455C16.62 21 16.48 21 16.2 21H13.8C13.52 21 13.38 21 13.273 21.0545C13.1789 21.1024 13.1024 21.1789 13.0545 21.273C13 21.38 13 21.52 13 21.8V24.2C13 24.48 13 24.62 13.0545 24.727C13.1024 24.8211 13.1789 24.8976 13.273 24.9455C13.38 25 13.52 25 13.8 25L24.2 25Z"
        fill="white"
      />
      <path
        d="M13 9.8C13 9.51997 13 9.37996 13.0545 9.273C13.1024 9.17892 13.1789 9.10243 13.273 9.0545C13.38 9 13.52 9 13.8 9H16.2C16.48 9 16.62 9 16.727 9.0545C16.8211 9.10243 16.8976 9.17892 16.9455 9.273C17 9.37996 17 9.51997 17 9.8V12.2C17 12.48 17 12.62 16.9455 12.727C16.8976 12.8211 16.8211 12.8976 16.727 12.9455C16.62 13 16.48 13 16.2 13H13.8C13.52 13 13.38 13 13.273 12.9455C13.1789 12.8976 13.1024 12.8211 13.0545 12.727C13 12.62 13 12.48 13 12.2V9.8Z"
        fill="white"
      />
      <path
        d="M6 15.8C6 15.52 6 15.38 6.0545 15.273C6.10243 15.1789 6.17892 15.1024 6.273 15.0545C6.37996 15 6.51997 15 6.8 15H9.2C9.48003 15 9.62004 15 9.727 15.0545C9.82108 15.1024 9.89757 15.1789 9.9455 15.273C10 15.38 10 15.52 10 15.8V18.2C10 18.48 10 18.62 9.9455 18.727C9.89757 18.8211 9.82108 18.8976 9.727 18.9455C9.62004 19 9.48003 19 9.2 19H6.8C6.51997 19 6.37996 19 6.273 18.9455C6.17892 18.8976 6.10243 18.8211 6.0545 18.727C6 18.62 6 18.48 6 18.2V15.8Z"
        fill="white"
      />
      <path
        d="M5 5.8C5 5.51997 5 5.37996 5.0545 5.273C5.10243 5.17892 5.17892 5.10243 5.273 5.0545C5.37996 5 5.51997 5 5.8 5H8.2C8.48003 5 8.62004 5 8.727 5.0545C8.82108 5.10243 8.89757 5.17892 8.9455 5.273C9 5.37996 9 5.51997 9 5.8V8.2C9 8.48003 9 8.62004 8.9455 8.727C8.89757 8.82108 8.82108 8.89757 8.727 8.9455C8.62004 9 8.48003 9 8.2 9H5.8C5.51997 9 5.37996 9 5.273 8.9455C5.17892 8.89757 5.10243 8.82108 5.0545 8.727C5 8.62004 5 8.48003 5 8.2V5.8Z"
        fill="white"
      />
    </svg>